<?xml version="1.0" encoding="UTF-8" standalone="no"?>
<svg
   xmlns:dc="http://purl.org/dc/elements/1.1/"
   xmlns:cc="http://creativecommons.org/ns#"
   xmlns:rdf="http://www.w3.org/1999/02/22-rdf-syntax-ns#"
   xmlns:svg="http://www.w3.org/2000/svg"
   xmlns="http://www.w3.org/2000/svg"
   viewBox="0 0 554.66669 202.66667"
   height="202.66667"
   width="554.66669"
   xml:space="preserve"
   id="svg2"
   version="1.1"><metadata
     id="metadata8"><rdf:RDF><cc:Work
         rdf:about=""><dc:format>image/svg+xml</dc:format><dc:type
           rdf:resource="http://purl.org/dc/dcmitype/StillImage" /></cc:Work></rdf:RDF></metadata><defs
     id="defs6" /><g
     transform="matrix(1.3333333,0,0,-1.3333333,0,202.66667)"
     id="g10"><g
       transform="scale(0.1)"
       id="g12"><path
         id="path14"
         style="fill:#f58220;fill-opacity:1;fill-rule:evenodd;stroke:none"
         d="m 2856.25,891.602 c 11.02,-16.012 16.52,-32.34 16.52,-49.024 -0.35,-26.328 -13.51,-51.168 -39.53,-74.488 -25.97,-23.68 -62.65,-45.36 -110,-65 -47.3,-19.649 -103.16,-36.68 -167.5,-51.02 -64.33,-14.34 -135.15,-25.468 -212.5,-33.48 -77.3,-8 -158.98,-11.988 -245,-11.988 -85.97,0 -167.5,3.988 -244.49,11.988 -77.34,8.012 -148.32,19.14 -213.01,33.48 -64.33,14.34 -120.15,31.371 -167.5,51.02 -47.3,19.64 -83.98,41.32 -110,65 -25.97,23.32 -39.14,48.16 -39.49,74.488 0.35,24.024 11.68,46.992 34.02,69.024 22.31,21.988 53.83,42.308 94.5,60.976 -47.66,-15.308 -88.68,-32.348 -123.01,-50.976 -34.34,-18.672 -60.82,-38.672 -79.49,-60 -18.36,-21.012 -27.66,-43.012 -28.01,-66.012 0.35,-28.68 14.65,-55.82 43.01,-81.488 28.67,-25.661 68.82,-49.332 120.5,-71.012 51.64,-21.328 112.82,-39.852 183.48,-55.512 70.35,-15.976 147.85,-28.316 232.5,-36.988 84.69,-8.68 174.02,-13.012 268.01,-13.012 93.98,0 183.32,4.332 268.01,13.012 84.33,8.672 161.83,21.012 232.5,36.988 70.31,15.66 131.48,34.184 183.47,55.512 51.68,21.68 91.68,45.351 120,71.012 28.67,25.668 43.17,52.808 43.52,81.488 0,16.988 -5.35,33.512 -16.02,49.488 -10.31,16.012 -25.15,31.524 -44.49,46.524" /><path
         id="path16"
         style="fill:#232323;fill-opacity:1;fill-rule:evenodd;stroke:none"
         d="m 1646.76,1042.58 c -4.34,-1.64 -8.83,-1.64 -13.52,0 -4.33,1.68 -8.32,4.02 -11.99,6.99 -3.32,3.36 -5.16,7.34 -5.51,12.03 0,4.65 2.03,9.65 6.02,15 4.33,5.31 10,7.97 16.99,7.97 6.68,0.35 12.19,-2.81 16.52,-9.49 3.32,-6.64 3.83,-13.32 1.49,-20 -1.99,-6.33 -5.35,-10.51 -10,-12.5 m 214.49,60 c -3.98,-1.33 -8.01,-1.33 -11.99,0 -3.99,1.68 -7.66,3.83 -11.02,6.52 -2.97,2.97 -4.49,6.49 -4.49,10.47 -0.31,4.34 1.33,8.87 5,13.52 4.02,4.64 9.02,7.14 15,7.5 6.33,0 11.33,-2.86 15,-8.52 3.01,-6.33 3.52,-12.3 1.52,-17.97 -2.03,-5.66 -5,-9.53 -9.02,-11.52 m 26.52,-233.478 c 4.34,-1.372 7.66,-4.024 10,-8.012 2.31,-4.02 3.83,-8.36 4.5,-13 0.66,-4.34 -0.36,-8.32 -3.01,-12 -2.66,-3.668 -7.15,-6.32 -13.52,-8 -6.33,-1.02 -12.15,0.5 -17.5,4.488 -5,4.024 -7.15,9.844 -6.48,17.5 1.68,6.992 5.35,12.344 11.01,16.012 5.32,3.32 10.32,4.34 15,3.012 m -126.52,171.988 c 0.66,-3.36 -0.16,-6.83 -2.5,-10.5 -2.34,-3.68 -5.31,-6.84 -8.98,-9.5 -3.36,-3 -7.19,-4.68 -11.53,-5 -4.33,-0.35 -8.32,1.18 -11.99,4.5 -3.98,3.32 -5.31,7.65 -3.98,13 1.32,5.32 5.15,9.85 11.48,13.48 6.99,3.01 13.16,3.67 18.52,2.03 5.31,-1.68 8.32,-4.33 8.98,-8.01 m -78.48,-126.52 c -1.36,-4.34 -3.86,-7.808 -7.5,-10.468 -3.67,-2.692 -7.85,-4.532 -12.5,-5.512 -4.33,-0.66 -8.36,0.16 -12.03,2.5 -3.63,2.66 -6.48,7 -8.47,13.012 -1.33,6.636 -0.16,12.66 3.47,17.968 3.67,5.352 9.18,7.852 16.53,7.5 7.34,-1.332 12.81,-4.648 16.48,-10 4.02,-5.308 5.35,-10.308 4.02,-15 m 228.48,64.02 c -1.99,-6.68 -6.17,-11.988 -12.5,-16.012 -6.33,-3.668 -13.16,-6.328 -20.51,-8.008 -7.3,-1.332 -13.98,0 -20,4.02 -6.33,3.68 -10.97,10.16 -13.98,19.5 -2.66,9.64 -0.82,18.672 5.51,26.99 6.32,8.01 15.5,11.68 27.5,11.01 11.99,-1.99 21.17,-6.99 27.5,-15 5.97,-8 8.16,-15.5 6.48,-22.5 m -118.48,-75.5 c -0.66,-2.66 -2.18,-4.852 -4.53,-6.488 -2.3,-1.68 -4.8,-2.692 -7.5,-3.012 -5.66,-1.32 -9.8,1.84 -12.5,9.5 -0.66,3.98 0,7.648 2.03,11.012 2.31,3.628 5.67,5.308 10,5 4.34,-1.012 7.66,-3.161 10,-6.524 2.31,-3.316 3.17,-6.488 2.5,-9.488 m -56.52,268.51 c -1.64,-4.33 -5,-7.69 -10,-10 -5,-2.34 -10.31,-4.02 -15.98,-5 -5.35,-1.01 -10.5,-0.19 -15.5,2.5 -4.69,2.31 -8.17,6.33 -10.51,11.99 -1.99,6.33 -0.67,12 3.98,17 5,5.35 12.19,7.65 21.53,6.99 9.33,-0.98 16.32,-4.14 20.97,-9.49 5,-5 6.84,-9.65 5.51,-13.99 m 906.99,7.97 c -0.66,-17.3 -1.83,-37.97 -3.47,-61.99 -1.33,-24.34 -2.66,-49.49 -4.03,-75.51 -1.64,-25.98 -2.97,-50.66 -3.98,-73.98 -1.02,-23.32 -1.49,-42.86 -1.49,-58.52 -0.66,-4.648 -2.85,-6.992 -6.52,-6.992 -3.67,0 -5.82,2.344 -6.48,6.992 0,2.7 -0.16,11.371 -0.51,26.02 -0.35,14.332 -0.82,31.988 -1.49,53 -0.35,20.98 -0.86,42.5 -1.52,64.5 -0.66,22.34 -1.17,42.5 -1.48,60.5 -0.67,18.01 -1.02,31.33 -1.02,40 -21.33,-6.32 -48.98,-14.33 -83.01,-24.02 -34.33,-9.65 -71.99,-20.16 -112.97,-31.48 -41.36,-11.33 -82.85,-22.66 -124.53,-33.99 -41.64,-11.01 -80.66,-21.01 -116.99,-30 -36.33,-9.33 -66.84,-16.68 -91.48,-22.03 -5.36,-0.31 -8.36,1.37 -9.03,5 -0.66,3.67 1.17,6.17 5.51,7.5 13.36,5.35 32.66,12.19 58.01,20.51 25.35,8.36 54.49,17.5 87.5,27.5 33.01,10.35 67.85,20.66 104.49,31.01 36.33,10.67 72.19,20.98 107.5,30.98 35.66,9.69 68.52,18.67 98.52,27.03 30,7.97 55.15,14.49 75.5,19.49 -2.34,56.64 -17.34,104.85 -45,144.5 -28,39.64 -65.19,71.48 -111.52,95.5 -46.33,23.68 -98.48,40.16 -156.48,49.5 -57.66,8.98 -117.86,11.32 -180.51,6.99 -62.35,-4.65 -123.67,-15.51 -183.99,-32.5 -60,-16.99 -115.5,-39.85 -166.52,-68.48 -50.66,-29.02 -93.16,-63.01 -127.5,-102.03 32.66,20 66.84,31.84 102.5,35.51 36.02,4.02 70.86,-0.67 104.49,-13.99 34.03,-13.36 64.85,-35.5 92.5,-66.52 27.35,-30.98 49.03,-71.33 65,-120.98 16.02,-50 24.03,-109.488 24.03,-178.512 0,-69.34 -10.51,-148.828 -31.53,-238.476 0,-1.012 -0.15,-1.832 -0.47,-2.5 20.32,6.988 48.99,16.488 85.98,28.476 36.99,11.992 79.02,25.152 126.02,39.492 46.99,14.34 95.31,28.668 145,43.008 50,14.332 97.81,27.5 143.47,39.492 46.02,12.032 86.53,21.52 121.53,28.52 5,0.351 8.16,-1.18 9.49,-4.5 1.33,-3.668 -0.51,-6.988 -5.51,-10 -17.34,-6.988 -41.17,-15.86 -71.48,-26.52 -30.67,-10.308 -65.36,-21.64 -104.03,-33.98 -38.98,-12.352 -79.8,-24.852 -122.5,-37.5 -42.3,-12.352 -84.14,-23.988 -125.47,-35 -41.36,-11.328 -79.68,-20.82 -115,-28.52 -35.35,-7.968 -65.19,-13.48 -89.53,-16.48 -1.64,-1.02 -4.14,-1.02 -7.5,0 -11.33,2.648 -29.49,8.512 -54.49,17.5 -25,8.672 -53.32,18.98 -85,31.012 -31.64,12.308 -63.16,25 -94.49,37.968 -31.33,12.7 -58.99,24.692 -83.01,36.02 -24.34,11.012 -41.33,19.84 -50.98,26.48 -3,1.371 -4.02,3.52 -3,6.52 1.32,3.012 5.82,3.832 13.47,2.5 12.35,-1.68 30.86,-6.52 55.51,-14.488 24.34,-8.364 51.68,-18.364 81.99,-30 30,-12.032 59.85,-24.332 89.53,-37.032 30,-12.66 56.49,-24.34 79.5,-35 23,-10.66 39.64,-18.98 50,-25 10.66,94.02 14.33,173.871 10.97,239.532 -3.32,65.668 -11.99,119.808 -25.97,162.498 -13.68,42.31 -30.86,75.67 -51.53,100 -20.31,23.99 -42.5,41.49 -66.48,52.5 -23.67,10.98 -46.99,17.66 -70,20 -36.02,4.65 -68.83,-0.35 -98.52,-15 -29.33,-14.69 -53.83,-39.18 -73.47,-73.51 -19.34,-34.65 -32.19,-79.5 -38.52,-134.5 -6.33,-54.68 -4.14,-120.149 6.52,-196.52 l -16.52,6.02 c -4.65,14.332 -8.83,34.18 -12.5,59.488 -3.67,25.352 -5.98,54.024 -6.99,86.012 -0.67,32.35 1.01,65.82 5,100.51 4.33,34.65 11.99,68.63 23.01,101.99 11.32,33.01 26.99,63.01 46.99,90 30.66,40 68.83,74.85 114.49,104.5 45.35,30 95.51,54.64 150.51,73.98 55,19.34 111.83,33.16 170.51,41.52 58.98,8.32 117.34,10.82 175,7.5 57.65,-3 111.83,-12.18 162.5,-27.5 50.66,-15.35 95.5,-36.99 134.49,-65 38.67,-27.65 68.51,-61.99 89.49,-103 21.33,-41.02 31.17,-88.83 29.49,-143.52 m -414.49,-24.49 c -0.66,41.99 -9.49,78.01 -26.48,108.01 -17.35,30 -40,54.49 -68.01,73.51 -28.32,18.99 -58.99,33.17 -91.99,42.5 -32.66,9.34 -65,14.14 -97,14.49 -32.03,0.67 -60.5,-2.5 -85.5,-9.49 38.32,3.99 77.14,1.33 116.48,-8.01 39.34,-9.02 76.52,-23.67 111.52,-44.02 35,-20.66 64.81,-45.82 89.5,-75.47 25,-30 42.14,-63.87 51.48,-101.52 m 193.52,82.5 c -0.36,36.68 -8.17,68.01 -23.52,94.02 -15,26.33 -34.65,47.81 -58.98,64.49 -24.69,16.64 -51.33,28.99 -80,37 -29.03,8 -57.35,12.34 -85,13 -28.01,0.67 -52.86,-2.18 -74.5,-8.51 33.32,3.36 67.15,1.01 101.49,-6.99 34.65,-8.01 67.15,-20.82 97.5,-38.52 30.35,-17.97 56.33,-40 78.01,-65.98 21.99,-26.32 36.99,-55.86 45,-88.51" /><path
         id="path18"
         style="fill:#171717;fill-opacity:1;fill-rule:nonzero;stroke:none"
         d="m 190.352,36.5195 h 27.027 c -20.738,26.4493 -41.52,52.8907 -62.34,79.3785 -20.859,26.563 -41.801,53.204 -62.8085,80 L 53.1602,158.551 c 0,-20.43 0.039,-40.781 0.1601,-61.0901 0.1992,-20.2304 0.3086,-40.5507 0.3086,-60.9414 H 90.5117 V 18.5508 H 0.0390625 V 36.5195 H 34.7305 V 315.59 H 0.0390625 v 17.961 H 86.9102 V 315.59 H 53.6289 V 192.301 c -0.3086,-2.422 -0.5781,-4.68 -0.7773,-6.871 -0.1211,-2.11 -0.1524,-4.34 -0.1524,-6.719 l 8.1211,9.527 133.1287,127.352 h -23.91 v 17.961 H 256.91 V 315.59 H 218.32 L 105.352,207.93 c 22.5,-28.75 45,-57.418 67.5,-85.942 22.5,-28.4372 45,-56.9489 67.5,-85.4685 H 277.23 V 18.5508 h -86.878 z m 118.168,0 h 35 V 169.34 h -32.348 v 17.961 h 47.656 l 0.473,-15.781 c 0.308,-5.11 0.621,-9.758 0.929,-13.899 0.321,-4.18 0.469,-8.832 0.469,-13.91 6.879,14.687 16.961,26.129 30.321,34.379 13.32,8.199 26.91,12.5 40.781,12.808 l -1.41,-18.437 c -9.61,-0.313 -18.512,-2.031 -26.719,-5.16 -8.242,-3.121 -15.434,-7.422 -21.563,-12.813 -6.168,-5.429 -11.058,-11.867 -14.687,-19.367 -3.551,-7.5 -5.313,-15.633 -5.313,-24.383 V 36.5195 h 33.282 V 18.5508 H 308.52 Z" /><path
         id="path20"
         style="fill:#171717;fill-opacity:1;fill-rule:nonzero;stroke:none"
         d="m 551.328,172.93 c -11.058,0 -21.168,-2.34 -30.308,-7.032 -9.18,-4.609 -16.961,-10.738 -23.29,-18.437 -6.25,-7.621 -10.699,-16.481 -13.281,-26.563 -2.5,-10 -2.73,-20.277 -0.621,-30.7769 20.082,8.1172 40.192,16.1289 60.313,24.0589 20.078,7.89 40.347,15.941 60.781,24.058 -5.121,10.203 -12.461,18.524 -22.031,25 -9.61,6.453 -20.121,9.692 -31.563,9.692 z m 77.5,-45 c -23.437,-9.301 -46.719,-18.52 -69.848,-27.66 -23.121,-9.1802 -46.359,-18.3911 -69.679,-27.6489 5.078,-11.4922 13.16,-20.7813 24.219,-27.9727 11.128,-7.1875 23.75,-10.7773 37.808,-10.7773 9.371,0 18.051,1.5977 26.094,4.8398 8.129,3.3204 15.199,8.0079 21.25,14.0586 2.066,-2.4179 3.988,-4.7578 5.777,-7.0312 1.762,-2.1875 3.75,-4.4883 5.942,-6.8672 -7.813,-7.3125 -16.68,-13.0508 -26.563,-17.1914 -9.918,-4.1406 -20.738,-6.25 -32.5,-6.25 -12.308,0 -23.75,2.3008 -34.379,6.8711 -10.621,4.6875 -19.961,10.9375 -27.969,18.75 -7.929,7.8203 -14.21,17.039 -18.902,27.6601 -4.609,10.6289 -6.879,22.0704 -6.879,34.3791 0,12.07 2.27,23.469 6.879,34.211 4.692,10.82 10.973,20.16 18.902,27.969 8.008,7.82 17.348,13.992 27.969,18.601 10.629,4.68 22.071,7.027 34.379,7.027 9.063,0 17.582,-1.558 25.621,-4.687 8.129,-3.121 15.551,-7.5 22.352,-13.121 6.75,-5.551 12.687,-12.149 17.808,-19.852 5.082,-7.617 8.981,-16.047 11.719,-25.308 z" /><path
         id="path22"
         style="fill:#171717;fill-opacity:1;fill-rule:nonzero;stroke:none"
         d="m 661.84,103.09 c 0,12.07 2.262,23.43 6.871,34.058 4.687,10.622 10.98,19.883 18.91,27.813 8,8.008 17.379,14.301 28.117,18.91 10.821,4.68 22.383,7.027 34.692,7.027 8.75,0 16.949,-1.328 24.691,-3.91 7.809,-2.5 14.84,-5.777 21.09,-9.84 6.328,-4.058 11.719,-8.707 16.09,-13.91 4.379,-5.226 7.578,-10.386 9.687,-15.468 0,6.57 0.203,13.128 0.633,19.691 0.5,6.641 0.93,13.277 1.25,19.84 H 839.18 V 36.5195 h 33.281 V 18.5508 h -50.473 v 17.9687 c 0,3.6407 0.043,7.1914 0.16,10.6289 0.192,3.4414 0.313,6.8008 0.313,10.1524 -2.109,-5.1094 -5.313,-10.2305 -9.691,-15.3125 -4.372,-5.1094 -9.649,-9.6485 -15.782,-13.5899 -6.168,-3.8671 -13.199,-6.9882 -21.09,-9.3789 -7.929,-2.3789 -16.41,-3.5898 -25.468,-3.5898 -12.309,0 -23.871,2.3008 -34.692,6.8711 -10.738,4.6875 -20.117,10.9375 -28.117,18.75 -7.93,7.8203 -14.223,17.039 -18.91,27.6601 -4.609,10.6289 -6.871,22.0704 -6.871,34.3791 z m 18.898,0 c 0,-9.6095 1.762,-18.6017 5.313,-27.0392 3.64,-8.3516 8.519,-15.6992 14.687,-22.0313 6.141,-6.25 13.481,-11.2109 22.032,-14.8398 8.519,-3.5586 17.742,-5.3086 27.66,-5.3086 9.879,0 18.98,1.75 27.34,5.3086 8.441,3.6289 15.781,8.5898 22.031,14.8398 6.328,6.3321 11.328,13.6797 15,22.0313 3.64,8.4375 5.469,17.4297 5.469,27.0392 0,9.68 -1.829,18.789 -5.469,27.34 -3.672,8.519 -8.672,15.941 -15,22.191 -6.25,6.328 -13.59,11.289 -22.031,14.84 -8.36,3.629 -17.461,5.469 -27.34,5.469 -9.918,0 -19.141,-1.84 -27.66,-5.469 -8.551,-3.551 -15.891,-8.512 -22.032,-14.84 -6.168,-6.25 -11.047,-13.672 -14.687,-22.191 -3.551,-8.551 -5.313,-17.66 -5.313,-27.34 z" /><path
         id="path24"
         style="fill:#171717;fill-opacity:1;fill-rule:nonzero;stroke:none"
         d="M 942.621,297.148 H 961.52 V 187.301 h 51.88 v -18.43 H 961.52 V 36.5195 h 36.878 V 18.5508 H 942.621 V 168.871 h -39.07 v 18.43 h 39.07 z" /><path
         id="path26"
         style="fill:#171717;fill-opacity:1;fill-rule:nonzero;stroke:none"
         d="m 1045.04,36.5195 h 34.69 V 169.34 h -34.69 v 17.961 h 53.59 V 36.5195 h 33.28 V 18.5508 h -86.87 z m 29.69,210.6285 c 0,4.141 1.44,7.653 4.37,10.473 3.01,2.891 6.49,4.367 10.47,4.367 3.52,0 6.8,-1.476 9.84,-4.367 3.01,-2.82 4.54,-6.332 4.54,-10.473 0,-4.179 -1.53,-7.738 -4.54,-10.628 -3.04,-2.809 -6.32,-4.219 -9.84,-4.219 -3.98,0 -7.46,1.41 -10.47,4.219 -2.93,2.89 -4.37,6.449 -4.37,10.628 z" /><path
         id="path28"
         style="fill:#171717;fill-opacity:1;fill-rule:nonzero;stroke:none"
         d="m 1163.71,187.301 h 83.28 V 169.34 h -29.37 c 11.13,-21.059 22.07,-42.27 32.81,-63.602 10.82,-21.2497 21.02,-42.3396 30.62,-63.2771 9.07,19.7696 19.07,40.4688 30,62.0271 10.94,21.563 21.96,43.172 33.13,64.852 h -26.09 v 17.961 h 78.75 V 169.34 h -32.97 c -13.75,-27.309 -27.58,-54.219 -41.41,-80.7892 -13.75,-26.5625 -27.58,-53.3516 -41.41,-80.31252 -14.06,26.96092 -27.93,53.75002 -41.56,80.31252 -13.67,26.5702 -27.34,53.4802 -41.09,80.7892 h -34.69 z" /><path
         id="path30"
         style="fill:#171717;fill-opacity:1;fill-rule:nonzero;stroke:none"
         d="m 1516.37,172.93 c -11.06,0 -21.17,-2.34 -30.32,-7.032 -9.17,-4.609 -16.95,-10.738 -23.28,-18.437 -6.25,-7.621 -10.7,-16.481 -13.28,-26.563 -2.5,-10 -2.73,-20.277 -0.62,-30.7769 20.08,8.1172 40.19,16.1289 60.31,24.0589 20.08,7.89 40.35,15.941 60.78,24.058 -5.12,10.203 -12.46,18.524 -22.03,25 -9.61,6.453 -20.12,9.692 -31.56,9.692 z m 77.5,-45 c -23.44,-9.301 -46.72,-18.52 -69.85,-27.66 -23.12,-9.1802 -46.36,-18.3911 -69.68,-27.6489 5.07,-11.4922 13.16,-20.7813 24.21,-27.9727 11.14,-7.1875 23.75,-10.7773 37.82,-10.7773 9.37,0 18.04,1.5977 26.09,4.8398 8.13,3.3204 15.2,8.0079 21.25,14.0586 2.07,-2.4179 3.99,-4.7578 5.78,-7.0312 1.76,-2.1875 3.75,-4.4883 5.94,-6.8672 -7.81,-7.3125 -16.68,-13.0508 -26.56,-17.1914 -9.92,-4.1406 -20.75,-6.25 -32.5,-6.25 -12.31,0 -23.75,2.3008 -34.38,6.8711 -10.62,4.6875 -19.96,10.9375 -27.97,18.75 -7.93,7.8203 -14.22,17.039 -18.9,27.6601 -4.61,10.6289 -6.88,22.0704 -6.88,34.3791 0,12.07 2.27,23.469 6.88,34.211 4.68,10.82 10.97,20.16 18.9,27.969 8.01,7.82 17.35,13.992 27.97,18.601 10.63,4.68 22.07,7.027 34.38,7.027 9.06,0 17.58,-1.558 25.62,-4.687 8.13,-3.121 15.55,-7.5 22.35,-13.121 6.75,-5.551 12.69,-12.149 17.81,-19.852 5.08,-7.617 8.98,-16.047 11.72,-25.308 z" /><path
         id="path32"
         style="fill:#171717;fill-opacity:1;fill-rule:nonzero;stroke:none"
         d="m 1952.54,36.5195 h 27.03 c -20.74,26.4493 -41.52,52.8907 -62.34,79.3785 -20.86,26.563 -41.8,53.204 -62.82,80 l -39.06,-37.347 c 0,-20.43 0.04,-40.781 0.16,-61.0901 0.19,-20.2304 0.31,-40.5507 0.31,-60.9414 h 36.88 V 18.5508 h -90.47 v 17.9687 h 34.68 V 315.59 h -34.68 v 17.961 h 86.87 V 315.59 h -33.28 V 192.301 c -0.31,-2.422 -0.59,-4.68 -0.78,-6.871 -0.12,-2.11 -0.16,-4.34 -0.16,-6.719 l 8.13,9.527 133.12,127.352 h -23.9 v 17.961 h 86.87 V 315.59 h -38.59 L 1867.54,207.93 c 22.5,-28.75 45,-57.418 67.5,-85.942 22.5,-28.4372 45,-56.9489 67.5,-85.4685 h 36.87 V 18.5508 h -86.87 z" /><path
         id="path34"
         style="fill:#171717;fill-opacity:1;fill-rule:nonzero;stroke:none"
         d="m 2158.87,172.93 c -11.06,0 -21.17,-2.34 -30.32,-7.032 -9.17,-4.609 -16.95,-10.738 -23.28,-18.437 -6.25,-7.621 -10.7,-16.481 -13.28,-26.563 -2.5,-10 -2.73,-20.277 -0.62,-30.7769 20.08,8.1172 40.19,16.1289 60.31,24.0589 20.08,7.89 40.35,15.941 60.78,24.058 -5.12,10.203 -12.46,18.524 -22.03,25 -9.61,6.453 -20.12,9.692 -31.56,9.692 z m 77.5,-45 c -23.44,-9.301 -46.72,-18.52 -69.85,-27.66 -23.12,-9.1802 -46.36,-18.3911 -69.68,-27.6489 5.07,-11.4922 13.16,-20.7813 24.21,-27.9727 11.14,-7.1875 23.75,-10.7773 37.82,-10.7773 9.37,0 18.04,1.5977 26.09,4.8398 8.13,3.3204 15.2,8.0079 21.25,14.0586 2.07,-2.4179 3.99,-4.7578 5.78,-7.0312 1.76,-2.1875 3.75,-4.4883 5.94,-6.8672 -7.81,-7.3125 -16.68,-13.0508 -26.56,-17.1914 -9.92,-4.1406 -20.75,-6.25 -32.5,-6.25 -12.31,0 -23.75,2.3008 -34.38,6.8711 -10.62,4.6875 -19.96,10.9375 -27.97,18.75 -7.93,7.8203 -14.22,17.039 -18.9,27.6601 -4.61,10.6289 -6.88,22.0704 -6.88,34.3791 0,12.07 2.27,23.469 6.88,34.211 4.68,10.82 10.97,20.16 18.9,27.969 8.01,7.82 17.35,13.992 27.97,18.601 10.63,4.68 22.07,7.027 34.38,7.027 9.06,0 17.58,-1.558 25.62,-4.687 8.13,-3.121 15.55,-7.5 22.35,-13.121 6.75,-5.551 12.69,-12.149 17.81,-19.852 5.08,-7.617 8.98,-16.047 11.72,-25.308 z" /><path
         id="path36"
         style="fill:#171717;fill-opacity:1;fill-rule:nonzero;stroke:none"
         d="m 2308.44,297.148 h 18.9 V 187.301 h 51.88 v -18.43 h -51.88 V 36.5195 h 36.88 V 18.5508 h -55.78 V 168.871 h -39.06 v 18.43 h 39.06 z" /><path
         id="path38"
         style="fill:#171717;fill-opacity:1;fill-rule:nonzero;stroke:none"
         d="m 2411.33,103.09 c 0,12.07 2.26,23.469 6.87,34.211 4.69,10.82 10.98,20.199 18.91,28.129 8.01,8.011 17.34,14.3 27.97,18.91 10.62,4.68 22.07,7.031 34.37,7.031 12.27,0 23.83,-2.351 34.69,-7.031 10.82,-4.61 20.24,-10.899 28.28,-18.91 8.13,-7.93 14.46,-17.309 19.06,-28.129 4.69,-10.742 7.04,-22.141 7.04,-34.211 0,-12.3087 -2.35,-23.7502 -7.04,-34.3791 -4.6,-10.6211 -10.93,-19.8398 -19.06,-27.6601 -8.04,-7.8125 -17.46,-14.0625 -28.28,-18.75 -10.86,-4.5703 -22.42,-6.8711 -34.69,-6.8711 -12.3,0 -23.75,2.3008 -34.37,6.8711 -10.63,4.6875 -19.96,10.9375 -27.97,18.75 -7.93,7.8203 -14.22,17.039 -18.91,27.6601 -4.61,10.6289 -6.87,22.0704 -6.87,34.3791 z m 18.44,0 c 0,-9.6095 1.75,-18.6017 5.31,-27.0392 3.63,-8.3516 8.59,-15.6992 14.84,-22.0313 6.33,-6.25 13.67,-11.2109 22.03,-14.8398 8.44,-3.5586 17.43,-5.3086 27.03,-5.3086 9.57,0 18.64,1.75 27.19,5.3086 8.63,3.6289 16.1,8.5898 22.35,14.8398 6.32,6.3321 11.28,13.6797 14.84,22.0313 3.63,8.4375 5.47,17.4297 5.47,27.0392 0,9.68 -1.84,18.672 -5.47,27.031 -3.56,8.43 -8.52,15.777 -14.84,22.027 -6.25,6.332 -13.72,11.403 -22.35,15.153 -8.55,3.75 -17.62,5.629 -27.19,5.629 -9.6,0 -18.59,-1.879 -27.03,-5.629 -8.36,-3.75 -15.7,-8.821 -22.03,-15.153 -6.25,-6.25 -11.21,-13.597 -14.84,-22.027 -3.56,-8.359 -5.31,-17.351 -5.31,-27.031 z" /><path
         id="path40"
         style="fill:#171717;fill-opacity:1;fill-rule:nonzero;stroke:none"
         d="m 2945.7,36.5195 h 27.03 c -20.74,26.4493 -41.52,52.8907 -62.34,79.3785 -20.86,26.563 -41.8,53.204 -62.81,80 l -39.06,-37.347 c 0,-20.43 0.03,-40.781 0.15,-61.0901 0.2,-20.2304 0.31,-40.5507 0.31,-60.9414 h 36.88 V 18.5508 h -90.47 v 17.9687 h 34.69 V 315.59 h -34.69 v 17.961 h 86.88 V 315.59 h -33.29 V 192.301 c -0.31,-2.422 -0.58,-4.68 -0.78,-6.871 -0.11,-2.11 -0.15,-4.34 -0.15,-6.719 l 8.12,9.527 133.13,127.352 h -23.91 v 17.961 h 86.88 V 315.59 h -38.6 L 2860.7,207.93 c 22.5,-28.75 45,-57.418 67.5,-85.942 22.5,-28.4372 45,-56.9489 67.5,-85.4685 h 36.88 V 18.5508 h -86.88 z" /><path
         id="path42"
         style="fill:#171717;fill-opacity:1;fill-rule:nonzero;stroke:none"
         d="m 3063.91,36.5195 h 34.68 V 169.34 h -34.68 v 17.961 h 53.59 V 36.5195 h 33.28 V 18.5508 h -86.87 z m 29.68,210.6285 c 0,4.141 1.45,7.653 4.38,10.473 3.01,2.891 6.48,4.367 10.47,4.367 3.51,0 6.79,-1.476 9.84,-4.367 3.01,-2.82 4.53,-6.332 4.53,-10.473 0,-4.179 -1.52,-7.738 -4.53,-10.628 -3.05,-2.809 -6.33,-4.219 -9.84,-4.219 -3.99,0 -7.46,1.41 -10.47,4.219 -2.93,2.89 -4.38,6.449 -4.38,10.628 z" /><path
         id="path44"
         style="fill:#171717;fill-opacity:1;fill-rule:nonzero;stroke:none"
         d="m 3221.6,297.148 h 18.91 V 187.301 h 51.87 v -18.43 h -51.87 V 36.5195 h 36.87 V 18.5508 H 3221.6 V 168.871 h -39.06 v 18.43 h 39.06 z" /><path
         id="path46"
         style="fill:#171717;fill-opacity:1;fill-rule:nonzero;stroke:none"
         d="m 3467.97,34.8008 c -7.74,-6.0508 -16.25,-10.7813 -25.63,-14.211 -9.29,-3.4414 -19.33,-5.1601 -30.15,-5.1601 -12.31,0 -23.75,2.3008 -34.38,6.8711 -10.62,4.6875 -19.96,10.9375 -27.97,18.75 -7.93,7.8203 -14.22,17.039 -18.9,27.6601 -4.61,10.6289 -6.88,22.0704 -6.88,34.3791 0,12.07 2.27,23.469 6.88,34.211 4.68,10.82 10.97,20.16 18.9,27.969 8.01,7.82 17.35,13.992 27.97,18.601 10.63,4.68 22.07,7.027 34.38,7.027 10.82,0 21.01,-1.718 30.62,-5.16 9.57,-3.437 18.13,-8.199 25.63,-14.218 v -44.059 h -17.03 v 33.277 c -5.75,3.953 -11.84,6.961 -18.29,9.063 -6.48,2.078 -13.43,3.129 -20.93,3.129 -9.92,0 -19.07,-1.84 -27.5,-5.469 -8.36,-3.551 -15.59,-8.512 -21.72,-14.84 -6.17,-6.25 -11.06,-13.672 -14.69,-22.191 -3.55,-8.551 -5.31,-17.66 -5.31,-27.34 0,-9.6095 1.76,-18.6017 5.31,-27.0392 3.63,-8.3516 8.52,-15.6992 14.69,-22.0313 6.13,-6.25 13.36,-11.2109 21.72,-14.8398 8.43,-3.5586 17.58,-5.3086 27.5,-5.3086 17.07,0 31.79,4.918 44.22,14.8398 z" /><path
         id="path48"
         style="fill:#171717;fill-opacity:1;fill-rule:nonzero;stroke:none"
         d="m 3626.72,36.5195 h 35.16 V 135.59 c -0.63,9.57 -4.18,17.961 -10.63,25.148 -6.48,7.192 -16.02,11.102 -28.59,11.723 -8.99,0 -17.66,-1.641 -26.1,-4.84 -8.44,-3.133 -15.9,-7.422 -22.34,-12.82 -6.37,-5.313 -11.41,-11.711 -15.16,-19.211 -3.75,-7.5 -5.62,-15.789 -5.62,-24.852 V 36.5195 h 33.28 V 18.5508 h -86.88 v 17.9687 h 35 V 338.09 h -33.28 v 17.961 h 51.88 v -192.18 l -1.41,-20.16 c 6.25,14.379 15.86,25.668 28.91,33.91 13.12,8.199 28.2,12.649 45.31,13.277 16.45,0 29.45,-4.687 39.06,-14.058 9.69,-9.301 14.85,-21.41 15.47,-36.41 V 36.5195 h 32.81 V 18.5508 h -86.87 z" /><path
         id="path50"
         style="fill:#171717;fill-opacity:1;fill-rule:nonzero;stroke:none"
         d="m 3833.16,172.93 c -11.05,0 -21.17,-2.34 -30.31,-7.032 -9.18,-4.609 -16.95,-10.738 -23.28,-18.437 -6.25,-7.621 -10.7,-16.481 -13.28,-26.563 -2.5,-10 -2.74,-20.277 -0.63,-30.7769 20.08,8.1172 40.2,16.1289 60.32,24.0589 20.07,7.89 40.35,15.941 60.78,24.058 -5.12,10.203 -12.46,18.524 -22.03,25 -9.61,6.453 -20.12,9.692 -31.57,9.692 z m 77.5,-45 c -23.43,-9.301 -46.71,-18.52 -69.84,-27.66 -23.12,-9.1802 -46.37,-18.3911 -69.69,-27.6489 5.08,-11.4922 13.17,-20.7813 24.22,-27.9727 11.13,-7.1875 23.75,-10.7773 37.81,-10.7773 9.38,0 18.05,1.5977 26.1,4.8398 8.12,3.3204 15.19,8.0079 21.25,14.0586 2.07,-2.4179 3.98,-4.7578 5.78,-7.0312 1.76,-2.1875 3.75,-4.4883 5.94,-6.8672 -7.82,-7.3125 -16.68,-13.0508 -26.57,-17.1914 -9.92,-4.1406 -20.74,-6.25 -32.5,-6.25 -12.3,0 -23.75,2.3008 -34.37,6.8711 -10.63,4.6875 -19.96,10.9375 -27.97,18.75 -7.93,7.8203 -14.22,17.039 -18.91,27.6601 -4.61,10.6289 -6.87,22.0704 -6.87,34.3791 0,12.07 2.26,23.469 6.87,34.211 4.69,10.82 10.98,20.16 18.91,27.969 8.01,7.82 17.34,13.992 27.97,18.601 10.62,4.68 22.07,7.027 34.37,7.027 9.07,0 17.58,-1.558 25.63,-4.687 8.12,-3.121 15.55,-7.5 22.34,-13.121 6.76,-5.551 12.7,-12.149 17.82,-19.852 5.07,-7.617 8.98,-16.047 11.71,-25.308 z" /><path
         id="path52"
         style="fill:#171717;fill-opacity:1;fill-rule:nonzero;stroke:none"
         d="m 4070.55,36.5195 h 35.15 V 135.59 c -0.62,9.57 -4.18,17.961 -10.62,25.148 -6.49,7.192 -16.02,11.102 -28.6,11.723 -8.98,0 -17.65,-1.641 -26.09,-4.84 -8.44,-3.133 -15.9,-7.422 -22.34,-12.82 -6.37,-5.313 -11.41,-11.711 -15.16,-19.211 -3.75,-7.5 -5.62,-15.789 -5.62,-24.852 V 36.5195 h 33.28 V 18.5508 h -86.88 v 17.9687 h 35 V 169.34 h -32.34 v 17.961 h 47.65 l 0.47,-15.781 c 0.32,-5.11 0.63,-9.758 0.94,-13.899 0.31,-4.18 0.47,-8.832 0.47,-13.91 5.94,14.059 15.55,25.391 28.91,34.059 13.43,8.75 28.51,13.128 45.31,13.128 16.44,0 29.45,-4.687 39.06,-14.058 9.69,-9.301 14.84,-21.41 15.47,-36.41 V 36.5195 h 32.81 V 18.5508 h -86.87 z" /></g></g></svg>